{"asset": {"generator": "Khronos glTF Blender I/O v4.4.56", "version": "2.0"}, "scene": 0, "scenes": [{"name": "Scene", "nodes": [0, 1, 2, 3, 4, 5, 6, 7, 8, 9, 10, 11, 12, 13, 14, 15, 16, 17, 18, 19, 20, 21, 22, 23, 24, 25, 26]}], "nodes": [{"mesh": 0, "name": "Debris_11", "rotation": [0.7071068286895752, 0, 0, 0.7071068286895752], "scale": [8.883732795715332, 8.883732795715332, 8.883732795715332], "translation": [-132.12051391601562, 0, -50.053955078125]}, {"mesh": 1, "name": "Debris_10", "translation": [-37.24564743041992, 0, -50.87453842163086]}, {"mesh": 2, "name": "Debris_09", "rotation": [0.7071067690849304, 0, 0, 0.7071068286895752], "scale": [7.195943832397461, 7.195943832397461, 7.195943832397461], "translation": [155.17990112304688, 0, -49.974327087402344]}, {"mesh": 3, "name": "Debris_08", "rotation": [0.25399407744407654, -0.23282894492149353, -0.6652737259864807, 0.6623358130455017], "translation": [130.73831176757812, 0, -49.532379150390625]}, {"mesh": 4, "name": "Debris_07", "translation": [105.00916290283203, 0, -49.38575744628906]}, {"mesh": 5, "name": "Debris_06", "translation": [-8.674644470214844, 0, -49.606571197509766]}, {"mesh": 6, "name": "Debris_05", "translation": [-69.81818389892578, 0, -50.12092971801758]}, {"mesh": 7, "name": "Debris_04", "translation": [-98.17107391357422, 0, -49.956214904785156]}, {"mesh": 8, "name": "Debris_03", "rotation": [-0.07160221040248871, -0.05780893936753273, 0.09711754322052002, 0.9910092949867249], "translation": [76.72091674804688, 0, -50.04753112792969]}, {"mesh": 9, "name": "Debris_02", "rotation": [0.5614916086196899, 0.017896443605422974, -0.5104597210884094, 0.6510283350944519], "scale": [2.5201826095581055, 2.5201821327209473, 2.5201821327209473], "translation": [46.264915466308594, 0, -49.41485595703125]}, {"mesh": 10, "name": "Debris_01", "translation": [18.82648468017578, 0, -49.37031936645508]}, {"mesh": 11, "name": "Building_14", "translation": [224.09896850585938, 0, 58.21805953979492]}, {"mesh": 12, "name": "Church", "translation": [-160.43814086914062, 0, 0]}, {"mesh": 13, "name": "Building_13", "translation": [94.10322570800781, 0, 0]}, {"mesh": 14, "name": "Building_12", "translation": [123.44819641113281, 0, 60.10917282104492]}, {"mesh": 15, "name": "Building_11", "translation": [67.68792724609375, 0, 59.18070602416992]}, {"mesh": 16, "name": "Building_10", "translation": [8.456315994262695, 0, 59.69136428833008]}, {"mesh": 17, "name": "Building_09", "translation": [-45.16197967529297, 0, 63.93315887451172]}, {"mesh": 18, "name": "Building_08", "translation": [-112.10369110107422, 0, 66.62619018554688]}, {"mesh": 19, "name": "Building_07", "translation": [172.2969512939453, 0, 58.687225341796875]}, {"mesh": 20, "name": "Building_06", "translation": [-108.89472198486328, 0, 0]}, {"mesh": 21, "name": "Building_05", "translation": [197.92437744140625, 0, 0]}, {"mesh": 22, "name": "Building_04", "translation": [148.66293334960938, 0, 0]}, {"mesh": 23, "name": "Building_03", "scale": [2.332575798034668, 2.332575798034668, 2.332575798034668], "translation": [40.47311782836914, 0, 0]}, {"mesh": 24, "name": "Building_02", "translation": [-56.15993118286133, 0, 7.0447096824646]}, {"mesh": 25, "name": "Building_01", "scale": [1.0415958166122437, 1.0415958166122437, 1.0415958166122437]}, {"mesh": 26, "name": "Building_08_1", "translation": [-178.1125946044922, 0, 66.62619018554688]}], "materials": [{"doubleSided": true, "name": "Concrete", "pbrMetallicRoughness": {"baseColorFactor": [0.52, 0.51, 0.48, 1.0], "metallicFactor": 0.0, "roughnessFactor": 0.95}}, {"doubleSided": true, "name": "Snow", "pbrMetallicRoughness": {"baseColorFactor": [0.52, 0.51, 0.48, 1.0], "metallicFactor": 0.0, "roughnessFactor": 0.95}}], "meshes": [{"name": "lastlast1.003", "primitives": [{"attributes": {"POSITION": 0, "NORMAL": 1, "TEXCOORD_0": 2, "COLOR_0": 3, "COLOR_1": 4}, "indices": 5, "material": 0}, {"attributes": {"POSITION": 6, "NORMAL": 7, "TEXCOORD_0": 8, "COLOR_0": 9, "COLOR_1": 10}, "indices": 11, "material": 1}]}, {"name": "Plane.020", "primitives": [{"attributes": {"POSITION": 12, "NORMAL": 13, "TEXCOORD_0": 14, "COLOR_0": 15, "COLOR_1": 16}, "indices": 17, "material": 0}, {"attributes": {"POSITION": 18, "NORMAL": 19, "TEXCOORD_0": 20, "COLOR_0": 21, "COLOR_1": 22}, "indices": 23, "material": 1}]}, {"name": "lastlast1.001", "primitives": [{"attributes": {"POSITION": 24, "NORMAL": 25, "TEXCOORD_0": 26, "COLOR_0": 27, "COLOR_1": 28}, "indices": 29, "material": 1}, {"attributes": {"POSITION": 30, "NORMAL": 31, "TEXCOORD_0": 32, "COLOR_0": 33, "COLOR_1": 34}, "indices": 35, "material": 0}]}, {"name": "Cylinder.031", "primitives": [{"attributes": {"POSITION": 36, "NORMAL": 37, "TEXCOORD_0": 38, "COLOR_0": 39, "COLOR_1": 40}, "indices": 41, "material": 0}, {"attributes": {"POSITION": 42, "NORMAL": 43, "TEXCOORD_0": 44, "COLOR_0": 45, "COLOR_1": 46}, "indices": 47, "material": 1}]}, {"name": "Cube.221", "primitives": [{"attributes": {"POSITION": 48, "NORMAL": 49, "TEXCOORD_0": 50, "COLOR_0": 51, "COLOR_1": 52}, "indices": 53, "material": 0}, {"attributes": {"POSITION": 54, "NORMAL": 55, "TEXCOORD_0": 56, "COLOR_0": 57, "COLOR_1": 58}, "indices": 59, "material": 1}]}, {"name": "Cube.218", "primitives": [{"attributes": {"POSITION": 60, "NORMAL": 61, "TEXCOORD_0": 62, "COLOR_0": 63, "COLOR_1": 64}, "indices": 65, "material": 0}, {"attributes": {"POSITION": 66, "NORMAL": 67, "TEXCOORD_0": 68, "COLOR_0": 69, "COLOR_1": 70}, "indices": 71, "material": 1}]}, {"name": "Cube.107_cell.006", "primitives": [{"attributes": {"POSITION": 72, "NORMAL": 73, "TEXCOORD_0": 74, "COLOR_0": 75, "COLOR_1": 76}, "indices": 77, "material": 0}, {"attributes": {"POSITION": 78, "NORMAL": 79, "TEXCOORD_0": 80, "COLOR_0": 81, "COLOR_1": 82}, "indices": 83, "material": 1}]}, {"name": "Cube.220", "primitives": [{"attributes": {"POSITION": 84, "NORMAL": 85, "TEXCOORD_0": 86, "COLOR_0": 87, "COLOR_1": 88}, "indices": 89, "material": 0}, {"attributes": {"POSITION": 90, "NORMAL": 91, "TEXCOORD_0": 92, "COLOR_0": 93, "COLOR_1": 94}, "indices": 95, "material": 1}]}, {"name": "Plane.015", "primitives": [{"attributes": {"POSITION": 96, "NORMAL": 97, "TEXCOORD_0": 98, "COLOR_0": 99, "COLOR_1": 100}, "indices": 101, "material": 1}, {"attributes": {"POSITION": 102, "NORMAL": 103, "TEXCOORD_0": 104, "COLOR_0": 105, "COLOR_1": 106}, "indices": 107, "material": 0}]}, {"name": "Cube.139_cell.172", "primitives": [{"attributes": {"POSITION": 108, "NORMAL": 109, "TEXCOORD_0": 110, "COLOR_0": 111, "COLOR_1": 112}, "indices": 113, "material": 0}, {"attributes": {"POSITION": 114, "NORMAL": 115, "TEXCOORD_0": 116, "COLOR_0": 117, "COLOR_1": 118}, "indices": 119, "material": 1}]}, {"name": "Cube.139_cell.183", "primitives": [{"attributes": {"POSITION": 120, "NORMAL": 121, "TEXCOORD_0": 122, "COLOR_0": 123, "COLOR_1": 124}, "indices": 125, "material": 0}, {"attributes": {"POSITION": 126, "NORMAL": 127, "TEXCOORD_0": 128, "COLOR_0": 129, "COLOR_1": 130}, "indices": 131, "material": 1}]}, {"name": "Cube.336", "primitives": [{"attributes": {"POSITION": 132, "NORMAL": 133, "TEXCOORD_0": 134, "COLOR_0": 135, "COLOR_1": 136}, "indices": 137, "material": 0}, {"attributes": {"POSITION": 138, "NORMAL": 139, "TEXCOORD_0": 140, "COLOR_0": 141, "COLOR_1": 142}, "indices": 143, "material": 1}]}, {"name": "Cylinder.036", "primitives": [{"attributes": {"POSITION": 144, "NORMAL": 145, "TEXCOORD_0": 146, "COLOR_0": 147, "COLOR_1": 148}, "indices": 149, "material": 0}, {"attributes": {"POSITION": 150, "NORMAL": 151, "TEXCOORD_0": 152, "COLOR_0": 153, "COLOR_1": 154}, "indices": 155, "material": 1}]}, {"name": "Cube.230", "primitives": [{"attributes": {"POSITION": 156, "NORMAL": 157, "TEXCOORD_0": 158, "COLOR_0": 159, "COLOR_1": 160}, "indices": 161, "material": 0}, {"attributes": {"POSITION": 162, "NORMAL": 163, "TEXCOORD_0": 164, "COLOR_0": 165, "COLOR_1": 166}, "indices": 167, "material": 1}]}, {"name": "Cube.213", "primitives": [{"attributes": {"POSITION": 168, "NORMAL": 169, "TEXCOORD_0": 170, "COLOR_0": 171, "COLOR_1": 172}, "indices": 173, "material": 0}, {"attributes": {"POSITION": 174, "NORMAL": 175, "TEXCOORD_0": 176, "COLOR_0": 177, "COLOR_1": 178}, "indices": 179, "material": 1}]}, {"name": "Cube.200", "primitives": [{"attributes": {"POSITION": 180, "NORMAL": 181, "TEXCOORD_0": 182, "COLOR_0": 183, "COLOR_1": 184}, "indices": 185, "material": 0}, {"attributes": {"POSITION": 186, "NORMAL": 187, "TEXCOORD_0": 188, "COLOR_0": 189, "COLOR_1": 190}, "indices": 191, "material": 1}]}, {"name": "Cube.147", "primitives": [{"attributes": {"POSITION": 192, "NORMAL": 193, "TEXCOORD_0": 194, "COLOR_0": 195, "COLOR_1": 196}, "indices": 197, "material": 0}, {"attributes": {"POSITION": 198, "NORMAL": 199, "TEXCOORD_0": 200, "COLOR_0": 201, "COLOR_1": 202}, "indices": 203, "material": 1}]}, {"name": "Cube.138", "primitives": [{"attributes": {"POSITION": 204, "NORMAL": 205, "TEXCOORD_0": 206, "COLOR_0": 207, "COLOR_1": 208}, "indices": 209, "material": 0}, {"attributes": {"POSITION": 210, "NORMAL": 211, "TEXCOORD_0": 212, "COLOR_0": 213, "COLOR_1": 214}, "indices": 215, "material": 1}]}, {"name": "Cylinder.028", "primitives": [{"attributes": {"POSITION": 216, "NORMAL": 217, "TEXCOORD_0": 218, "COLOR_0": 219, "COLOR_1": 220}, "indices": 221, "material": 0}, {"attributes": {"POSITION": 222, "NORMAL": 223, "TEXCOORD_0": 224, "COLOR_0": 225, "COLOR_1": 226}, "indices": 227, "material": 1}]}, {"name": "Cube.014", "primitives": [{"attributes": {"POSITION": 228, "NORMAL": 229, "TEXCOORD_0": 230, "COLOR_0": 231, "COLOR_1": 232}, "indices": 233, "material": 0}, {"attributes": {"POSITION": 234, "NORMAL": 235, "TEXCOORD_0": 236, "COLOR_0": 237, "COLOR_1": 238}, "indices": 239, "material": 1}]}, {"name": "Cube.007", "primitives": [{"attributes": {"POSITION": 240, "NORMAL": 241, "TEXCOORD_0": 242, "COLOR_0": 243, "COLOR_1": 244}, "indices": 245, "material": 0}, {"attributes": {"POSITION": 246, "NORMAL": 247, "TEXCOORD_0": 248, "COLOR_0": 249, "COLOR_1": 250}, "indices": 251, "material": 1}]}, {"name": "Plane.007", "primitives": [{"attributes": {"POSITION": 252, "NORMAL": 253, "TEXCOORD_0": 254}, "indices": 255, "material": 0}, {"attributes": {"POSITION": 256, "NORMAL": 257, "TEXCOORD_0": 258}, "indices": 259, "material": 1}]}, {"name": "Cube.042", "primitives": [{"attributes": {"POSITION": 260, "NORMAL": 261, "TEXCOORD_0": 262, "COLOR_0": 263, "COLOR_1": 264}, "indices": 265, "material": 0}, {"attributes": {"POSITION": 266, "NORMAL": 267, "TEXCOORD_0": 268, "COLOR_0": 269, "COLOR_1": 270}, "indices": 271, "material": 1}]}, {"name": "Cube.039", "primitives": [{"attributes": {"POSITION": 272, "NORMAL": 273, "TEXCOORD_0": 274, "COLOR_0": 275, "COLOR_1": 276}, "indices": 277, "material": 0}, {"attributes": {"POSITION": 278, "NORMAL": 279, "TEXCOORD_0": 280, "COLOR_0": 281, "COLOR_1": 282}, "indices": 283, "material": 1}]}, {"name": "Cube.033", "primitives": [{"attributes": {"POSITION": 284, "NORMAL": 285, "TEXCOORD_0": 286, "COLOR_0": 287, "COLOR_1": 288}, "indices": 289, "material": 0}, {"attributes": {"POSITION": 290, "NORMAL": 291, "TEXCOORD_0": 292, "COLOR_0": 293, "COLOR_1": 294}, "indices": 295, "material": 1}]}, {"name": "Cube.034", "primitives": [{"attributes": {"POSITION": 296, "NORMAL": 297, "TEXCOORD_0": 298, "COLOR_0": 299, "COLOR_1": 300}, "indices": 301, "material": 0}, {"attributes": {"POSITION": 302, "NORMAL": 303, "TEXCOORD_0": 304, "COLOR_0": 305, "COLOR_1": 306}, "indices": 307, "material": 1}]}, {"name": "Cylinder.001", "primitives": [{"attributes": {"POSITION": 308, "NORMAL": 309, "TEXCOORD_0": 310, "COLOR_0": 311, "COLOR_1": 312}, "indices": 313, "material": 0}, {"attributes": {"POSITION": 314, "NORMAL": 315, "TEXCOORD_0": 316, "COLOR_0": 317, "COLOR_1": 318}, "indices": 319, "material": 1}]}], "accessors": [{"bufferView": 0, "componentType": 5126, "count": 299, "max": [0.8571977615356445, 0.8366179466247559, 0.0560544952750206], "min": [-0.8571977615356445, -0.8366179466247559, -0.09645835310220718], "type": "VEC3"}, {"bufferView": 1, "componentType": 5126, "count": 299, "type": "VEC3"}, {"bufferView": 2, "componentType": 5126, "count": 299, "type": "VEC2"}, {"bufferView": 3, "componentType": 5121, "count": 299, "normalized": true, "type": "VEC4"}, {"bufferView": 4, "componentType": 5123, "count": 299, "normalized": true, "type": "VEC4"}, {"bufferView": 5, "componentType": 5123, "count": 570, "type": "SCALAR"}, {"bufferView": 6, "componentType": 5126, "count": 80, "max": [0.8571977615356445, 0.8366179466247559, 0.03137187659740448], "min": [-0.7004944086074829, -0.8366179466247559, -0.09645835310220718], "type": "VEC3"}, {"bufferView": 7, "componentType": 5126, "count": 80, "type": "VEC3"}, {"bufferView": 8, "componentType": 5126, "count": 80, "type": "VEC2"}, {"bufferView": 9, "componentType": 5121, "count": 80, "normalized": true, "type": "VEC4"}, {"bufferView": 10, "componentType": 5123, "count": 80, "normalized": true, "type": "VEC4"}, {"bufferView": 11, "componentType": 5123, "count": 174, "type": "SCALAR"}, {"bufferView": 12, "componentType": 5126, "count": 168, "max": [5.578100681304932, 4.370035648345947, 4.819022178649902], "min": [-5.578100681304932, -0.07305184006690979, -4.819022178649902], "type": "VEC3"}, {"bufferView": 13, "componentType": 5126, "count": 168, "type": "VEC3"}, {"bufferView": 14, "componentType": 5126, "count": 168, "type": "VEC2"}, {"bufferView": 15, "componentType": 5121, "count": 168, "normalized": true, "type": "VEC4"}, {"bufferView": 16, "componentType": 5123, "count": 168, "normalized": true, "type": "VEC4"}, {"bufferView": 17, "componentType": 5123, "count": 270, "type": "SCALAR"}, {"bufferView": 18, "componentType": 5126, "count": 58, "max": [5.108134746551514, 4.370035648345947, 4.819022178649902], "min": [-5.578100681304932, -0.07305184006690979, -4.819022178649902], "type": "VEC3"}, {"bufferView": 19, "componentType": 5126, "count": 58, "type": "VEC3"}, {"bufferView": 20, "componentType": 5126, "count": 58, "type": "VEC2"}, {"bufferView": 21, "componentType": 5121, "count": 58, "normalized": true, "type": "VEC4"}, {"bufferView": 22, "componentType": 5123, "count": 58, "normalized": true, "type": "VEC4"}, {"bufferView": 23, "componentType": 5123, "count": 96, "type": "SCALAR"}, {"bufferView": 24, "componentType": 5126, "count": 76, "max": [0.8964597582817078, 0.6210895776748657, 0.021304398775100708], "min": [-0.8484742641448975, -0.6204760074615479, -0.2443816363811493], "type": "VEC3"}, {"bufferView": 25, "componentType": 5126, "count": 76, "type": "VEC3"}, {"bufferView": 26, "componentType": 5126, "count": 76, "type": "VEC2"}, {"bufferView": 27, "componentType": 5121, "count": 76, "normalized": true, "type": "VEC4"}, {"bufferView": 28, "componentType": 5123, "count": 76, "normalized": true, "type": "VEC4"}, {"bufferView": 29, "componentType": 5123, "count": 222, "type": "SCALAR"}, {"bufferView": 30, "componentType": 5126, "count": 171, "max": [0.772212564945221, 0.5027227997779846, 0.052483439445495605], "min": [-0.8964597582817078, -0.6210895776748657, -0.2443816363811493], "type": "VEC3"}, {"bufferView": 31, "componentType": 5126, "count": 171, "type": "VEC3"}, {"bufferView": 32, "componentType": 5126, "count": 171, "type": "VEC2"}, {"bufferView": 33, "componentType": 5121, "count": 171, "normalized": true, "type": "VEC4"}, {"bufferView": 34, "componentType": 5123, "count": 171, "normalized": true, "type": "VEC4"}, {"bufferView": 35, "componentType": 5123, "count": 408, "type": "SCALAR"}, {"bufferView": 36, "componentType": 5126, "count": 200, "max": [0.2579359710216522, 5.457668304443359, 6.090363502502441], "min": [-2.403242349624634, -5.50444221496582, -4.914888858795166], "type": "VEC3"}, {"bufferView": 37, "componentType": 5126, "count": 200, "type": "VEC3"}, {"bufferView": 38, "componentType": 5126, "count": 200, "type": "VEC2"}, {"bufferView": 39, "componentType": 5121, "count": 200, "normalized": true, "type": "VEC4"}, {"bufferView": 40, "componentType": 5123, "count": 200, "normalized": true, "type": "VEC4"}, {"bufferView": 41, "componentType": 5123, "count": 438, "type": "SCALAR"}, {"bufferView": 42, "componentType": 5126, "count": 117, "max": [0.42896515130996704, 5.447449684143066, 6.090363502502441], "min": [-2.403242349624634, -5.291140556335449, -6.071286678314209], "type": "VEC3"}, {"bufferView": 43, "componentType": 5126, "count": 117, "type": "VEC3"}, {"bufferView": 44, "componentType": 5126, "count": 117, "type": "VEC2"}, {"bufferView": 45, "componentType": 5121, "count": 117, "normalized": true, "type": "VEC4"}, {"bufferView": 46, "componentType": 5123, "count": 117, "normalized": true, "type": "VEC4"}, {"bufferView": 47, "componentType": 5123, "count": 285, "type": "SCALAR"}, {"bufferView": 48, "componentType": 5126, "count": 232, "max": [5.093604564666748, 0.5938093662261963, 4.607663154602051], "min": [-5.093604564666748, -0.5938093662261963, -4.607663154602051], "type": "VEC3"}, {"bufferView": 49, "componentType": 5126, "count": 232, "type": "VEC3"}, {"bufferView": 50, "componentType": 5126, "count": 232, "type": "VEC2"}, {"bufferView": 51, "componentType": 5121, "count": 232, "normalized": true, "type": "VEC4"}, {"bufferView": 52, "componentType": 5123, "count": 232, "normalized": true, "type": "VEC4"}, {"bufferView": 53, "componentType": 5123, "count": 564, "type": "SCALAR"}, {"bufferView": 54, "componentType": 5126, "count": 82, "max": [5.093604564666748, 0.5938093662261963, 4.584697246551514], "min": [-5.073723793029785, -0.49287548661231995, -4.607663154602051], "type": "VEC3"}, {"bufferView": 55, "componentType": 5126, "count": 82, "type": "VEC3"}, {"bufferView": 56, "componentType": 5126, "count": 82, "type": "VEC2"}, {"bufferView": 57, "componentType": 5121, "count": 82, "normalized": true, "type": "VEC4"}, {"bufferView": 58, "componentType": 5123, "count": 82, "normalized": true, "type": "VEC4"}, {"bufferView": 59, "componentType": 5123, "count": 150, "type": "SCALAR"}, {"bufferView": 60, "componentType": 5126, "count": 223, "max": [9.365625381469727, 5.920375823974609, 7.49326229095459], "min": [-9.365625381469727, -0.31431472301483154, -7.49326229095459], "type": "VEC3"}, {"bufferView": 61, "componentType": 5126, "count": 223, "type": "VEC3"}, {"bufferView": 62, "componentType": 5126, "count": 223, "type": "VEC2"}, {"bufferView": 63, "componentType": 5121, "count": 223, "normalized": true, "type": "VEC4"}, {"bufferView": 64, "componentType": 5123, "count": 223, "normalized": true, "type": "VEC4"}, {"bufferView": 65, "componentType": 5123, "count": 417, "type": "SCALAR"}, {"bufferView": 66, "componentType": 5126, "count": 90, "max": [9.32427978515625, 5.920375823974609, 7.49326229095459], "min": [-9.365625381469727, -0.31431472301483154, -6.9730753898620605], "type": "VEC3"}, {"bufferView": 67, "componentType": 5126, "count": 90, "type": "VEC3"}, {"bufferView": 68, "componentType": 5126, "count": 90, "type": "VEC2"}, {"bufferView": 69, "componentType": 5121, "count": 90, "normalized": true, "type": "VEC4"}, {"bufferView": 70, "componentType": 5123, "count": 90, "normalized": true, "type": "VEC4"}, {"bufferView": 71, "componentType": 5123, "count": 162, "type": "SCALAR"}, {"bufferView": 72, "componentType": 5126, "count": 336, "max": [9.176055908203125, 2.0983269214630127, 7.9217071533203125], "min": [-9.176055908203125, -0.7629033923149109, -7.9217071533203125], "type": "VEC3"}, {"bufferView": 73, "componentType": 5126, "count": 336, "type": "VEC3"}, {"bufferView": 74, "componentType": 5126, "count": 336, "type": "VEC2"}, {"bufferView": 75, "componentType": 5121, "count": 336, "normalized": true, "type": "VEC4"}, {"bufferView": 76, "componentType": 5123, "count": 336, "normalized": true, "type": "VEC4"}, {"bufferView": 77, "componentType": 5123, "count": 807, "type": "SCALAR"}, {"bufferView": 78, "componentType": 5126, "count": 78, "max": [8.552412033081055, 2.078275203704834, 7.9217071533203125], "min": [-9.176055908203125, -0.16086018085479736, -7.9217071533203125], "type": "VEC3"}, {"bufferView": 79, "componentType": 5126, "count": 78, "type": "VEC3"}, {"bufferView": 80, "componentType": 5126, "count": 78, "type": "VEC2"}, {"bufferView": 81, "componentType": 5121, "count": 78, "normalized": true, "type": "VEC4"}, {"bufferView": 82, "componentType": 5123, "count": 78, "normalized": true, "type": "VEC4"}, {"bufferView": 83, "componentType": 5123, "count": 159, "type": "SCALAR"}, {"bufferView": 84, "componentType": 5126, "count": 258, "max": [5.537472724914551, 1.4332737922668457, 4.895919322967529], "min": [-5.229367733001709, -0.2964075207710266, -4.2743144035339355], "type": "VEC3"}, {"bufferView": 85, "componentType": 5126, "count": 258, "type": "VEC3"}, {"bufferView": 86, "componentType": 5126, "count": 258, "type": "VEC2"}, {"bufferView": 87, "componentType": 5121, "count": 258, "normalized": true, "type": "VEC4"}, {"bufferView": 88, "componentType": 5123, "count": 258, "normalized": true, "type": "VEC4"}, {"bufferView": 89, "componentType": 5123, "count": 348, "type": "SCALAR"}, {"bufferView": 90, "componentType": 5126, "count": 154, "max": [5.537472724914551, 1.4332737922668457, 4.895919322967529], "min": [-5.229367733001709, -0.2964075207710266, -4.2743144035339355], "type": "VEC3"}, {"bufferView": 91, "componentType": 5126, "count": 154, "type": "VEC3"}, {"bufferView": 92, "componentType": 5126, "count": 154, "type": "VEC2"}, {"bufferView": 93, "componentType": 5121, "count": 154, "normalized": true, "type": "VEC4"}, {"bufferView": 94, "componentType": 5123, "count": 154, "normalized": true, "type": "VEC4"}, {"bufferView": 95, "componentType": 5123, "count": 216, "type": "SCALAR"}, {"bufferView": 96, "componentType": 5126, "count": 110, "max": [7.5964741706848145, 3.11686110496521, 7.827183246612549], "min": [-7.022741794586182, -1.6441024541854858, -7.3008646965026855], "type": "VEC3"}, {"bufferView": 97, "componentType": 5126, "count": 110, "type": "VEC3"}, {"bufferView": 98, "componentType": 5126, "count": 110, "type": "VEC2"}, {"bufferView": 99, "componentType": 5121, "count": 110, "normalized": true, "type": "VEC4"}, {"bufferView": 100, "componentType": 5123, "count": 110, "normalized": true, "type": "VEC4"}, {"bufferView": 101, "componentType": 5123, "count": 174, "type": "SCALAR"}, {"bufferView": 102, "componentType": 5126, "count": 301, "max": [8.07735824584961, 3.11686110496521, 7.967525959014893], "min": [-7.866690158843994, -2.0980961322784424, -7.830392837524414], "type": "VEC3"}, {"bufferView": 103, "componentType": 5126, "count": 301, "type": "VEC3"}, {"bufferView": 104, "componentType": 5126, "count": 301, "type": "VEC2"}, {"bufferView": 105, "componentType": 5121, "count": 301, "normalized": true, "type": "VEC4"}, {"bufferView": 106, "componentType": 5123, "count": 301, "normalized": true, "type": "VEC4"}, {"bufferView": 107, "componentType": 5123, "count": 447, "type": "SCALAR"}, {"bufferView": 108, "componentType": 5126, "count": 241, "max": [2.389415979385376, 2.5425307750701904, 2.2094967365264893], "min": [-2.755709409713745, -2.6256144046783447, -2.6353557109832764], "type": "VEC3"}, {"bufferView": 109, "componentType": 5126, "count": 241, "type": "VEC3"}, {"bufferView": 110, "componentType": 5126, "count": 241, "type": "VEC2"}, {"bufferView": 111, "componentType": 5121, "count": 241, "normalized": true, "type": "VEC4"}, {"bufferView": 112, "componentType": 5123, "count": 241, "normalized": true, "type": "VEC4"}, {"bufferView": 113, "componentType": 5123, "count": 486, "type": "SCALAR"}, {"bufferView": 114, "componentType": 5126, "count": 82, "max": [2.1377289295196533, 2.5068771839141846, 2.082772970199585], "min": [-2.755709409713745, -2.6256144046783447, -2.6353557109832764], "type": "VEC3"}, {"bufferView": 115, "componentType": 5126, "count": 82, "type": "VEC3"}, {"bufferView": 116, "componentType": 5126, "count": 82, "type": "VEC2"}, {"bufferView": 117, "componentType": 5121, "count": 82, "normalized": true, "type": "VEC4"}, {"bufferView": 118, "componentType": 5123, "count": 82, "normalized": true, "type": "VEC4"}, {"bufferView": 119, "componentType": 5123, "count": 177, "type": "SCALAR"}, {"bufferView": 120, "componentType": 5126, "count": 160, "max": [4.520605564117432, 1.4160816669464111, 2.4122204780578613], "min": [-4.10824728012085, -0.24620871245861053, -3.1929495334625244], "type": "VEC3"}, {"bufferView": 121, "componentType": 5126, "count": 160, "type": "VEC3"}, {"bufferView": 122, "componentType": 5126, "count": 160, "type": "VEC2"}, {"bufferView": 123, "componentType": 5121, "count": 160, "normalized": true, "type": "VEC4"}, {"bufferView": 124, "componentType": 5123, "count": 160, "normalized": true, "type": "VEC4"}, {"bufferView": 125, "componentType": 5123, "count": 363, "type": "SCALAR"}, {"bufferView": 126, "componentType": 5126, "count": 71, "max": [4.94877815246582, 1.4160816669464111, 2.366880416870117], "min": [-4.10824728012085, -0.08737460523843765, -3.173260450363159], "type": "VEC3"}, {"bufferView": 127, "componentType": 5126, "count": 71, "type": "VEC3"}, {"bufferView": 128, "componentType": 5126, "count": 71, "type": "VEC2"}, {"bufferView": 129, "componentType": 5121, "count": 71, "normalized": true, "type": "VEC4"}, {"bufferView": 130, "componentType": 5123, "count": 71, "normalized": true, "type": "VEC4"}, {"bufferView": 131, "componentType": 5123, "count": 174, "type": "SCALAR"}, {"bufferView": 132, "componentType": 5126, "count": 6177, "max": [12.537250518798828, 41.417510986328125, 7.247287750244141], "min": [-12.720052719116211, -4.76837158203125e-07, -8.423158645629883], "type": "VEC3"}, {"bufferView": 133, "componentType": 5126, "count": 6177, "type": "VEC3"}, {"bufferView": 134, "componentType": 5126, "count": 6177, "type": "VEC2"}, {"bufferView": 135, "componentType": 5121, "count": 6177, "normalized": true, "type": "VEC4"}, {"bufferView": 136, "componentType": 5123, "count": 6177, "normalized": true, "type": "VEC4"}, {"bufferView": 137, "componentType": 5123, "count": 10830, "type": "SCALAR"}, {"bufferView": 138, "componentType": 5126, "count": 1362, "max": [12.537250518798828, 41.417510986328125, 7.247287750244141], "min": [-12.720052719116211, 1.858896255493164, -8.423158645629883], "type": "VEC3"}, {"bufferView": 139, "componentType": 5126, "count": 1362, "type": "VEC3"}, {"bufferView": 140, "componentType": 5126, "count": 1362, "type": "VEC2"}, {"bufferView": 141, "componentType": 5121, "count": 1362, "normalized": true, "type": "VEC4"}, {"bufferView": 142, "componentType": 5123, "count": 1362, "normalized": true, "type": "VEC4"}, {"bufferView": 143, "componentType": 5123, "count": 2232, "type": "SCALAR"}, {"bufferView": 144, "componentType": 5126, "count": 3916, "max": [23.05817413330078, 40.89299392700195, 10.02147388458252], "min": [-18.925537109375, -0.1741963028907776, -10.021471977233887], "type": "VEC3"}, {"bufferView": 145, "componentType": 5126, "count": 3916, "type": "VEC3"}, {"bufferView": 146, "componentType": 5126, "count": 3916, "type": "VEC2"}, {"bufferView": 147, "componentType": 5121, "count": 3916, "normalized": true, "type": "VEC4"}, {"bufferView": 148, "componentType": 5123, "count": 3916, "normalized": true, "type": "VEC4"}, {"bufferView": 149, "componentType": 5123, "count": 9507, "type": "SCALAR"}, {"bufferView": 150, "componentType": 5126, "count": 895, "max": [23.05817413330078, 40.89299392700195, 10.02147388458252], "min": [-18.925537109375, 0.1989564299583435, -10.021471977233887], "type": "VEC3"}, {"bufferView": 151, "componentType": 5126, "count": 895, "type": "VEC3"}, {"bufferView": 152, "componentType": 5126, "count": 895, "type": "VEC2"}, {"bufferView": 153, "componentType": 5121, "count": 895, "normalized": true, "type": "VEC4"}, {"bufferView": 154, "componentType": 5123, "count": 895, "normalized": true, "type": "VEC4"}, {"bufferView": 155, "componentType": 5123, "count": 1875, "type": "SCALAR"}, {"bufferView": 156, "componentType": 5126, "count": 1780, "max": [15.472661018371582, 17.036813735961914, 11.515228271484375], "min": [-15.230496406555176, -0.0071203336119651794, -11.428112030029297], "type": "VEC3"}, {"bufferView": 157, "componentType": 5126, "count": 1780, "type": "VEC3"}, {"bufferView": 158, "componentType": 5126, "count": 1780, "type": "VEC2"}, {"bufferView": 159, "componentType": 5121, "count": 1780, "normalized": true, "type": "VEC4"}, {"bufferView": 160, "componentType": 5123, "count": 1780, "normalized": true, "type": "VEC4"}, {"bufferView": 161, "componentType": 5123, "count": 3366, "type": "SCALAR"}, {"bufferView": 162, "componentType": 5126, "count": 487, "max": [15.472661018371582, 17.036813735961914, 11.515228271484375], "min": [-15.230496406555176, 0.260755330324173, -11.428112030029297], "type": "VEC3"}, {"bufferView": 163, "componentType": 5126, "count": 487, "type": "VEC3"}, {"bufferView": 164, "componentType": 5126, "count": 487, "type": "VEC2"}, {"bufferView": 165, "componentType": 5121, "count": 487, "normalized": true, "type": "VEC4"}, {"bufferView": 166, "componentType": 5123, "count": 487, "normalized": true, "type": "VEC4"}, {"bufferView": 167, "componentType": 5123, "count": 771, "type": "SCALAR"}, {"bufferView": 168, "componentType": 5126, "count": 3335, "max": [13.790792465209961, 44.60125732421875, 8.97780704498291], "min": [-11.252219200134277, 0, -9.044506072998047], "type": "VEC3"}, {"bufferView": 169, "componentType": 5126, "count": 3335, "type": "VEC3"}, {"bufferView": 170, "componentType": 5126, "count": 3335, "type": "VEC2"}, {"bufferView": 171, "componentType": 5121, "count": 3335, "normalized": true, "type": "VEC4"}, {"bufferView": 172, "componentType": 5123, "count": 3335, "normalized": true, "type": "VEC4"}, {"bufferView": 173, "componentType": 5123, "count": 6345, "type": "SCALAR"}, {"bufferView": 174, "componentType": 5126, "count": 563, "max": [13.790792465209961, 44.60125732421875, 8.977553367614746], "min": [-11.252215385437012, 1.6013603210449219, -9.044506072998047], "type": "VEC3"}, {"bufferView": 175, "componentType": 5126, "count": 563, "type": "VEC3"}, {"bufferView": 176, "componentType": 5126, "count": 563, "type": "VEC2"}, {"bufferView": 177, "componentType": 5121, "count": 563, "normalized": true, "type": "VEC4"}, {"bufferView": 178, "componentType": 5123, "count": 563, "normalized": true, "type": "VEC4"}, {"bufferView": 179, "componentType": 5123, "count": 1077, "type": "SCALAR"}, {"bufferView": 180, "componentType": 5126, "count": 7312, "max": [20.118694305419922, 40.731239318847656, 8.978662490844727], "min": [-24.889297485351562, -3.814697265625e-06, -9.814205169677734], "type": "VEC3"}, {"bufferView": 181, "componentType": 5126, "count": 7312, "type": "VEC3"}, {"bufferView": 182, "componentType": 5126, "count": 7312, "type": "VEC2"}, {"bufferView": 183, "componentType": 5121, "count": 7312, "normalized": true, "type": "VEC4"}, {"bufferView": 184, "componentType": 5123, "count": 7312, "normalized": true, "type": "VEC4"}, {"bufferView": 185, "componentType": 5123, "count": 14928, "type": "SCALAR"}, {"bufferView": 186, "componentType": 5126, "count": 1578, "max": [20.118694305419922, 40.731239318847656, 8.97866153717041], "min": [-24.889297485351562, 0.4171257019042969, -9.814205169677734], "type": "VEC3"}, {"bufferView": 187, "componentType": 5126, "count": 1578, "type": "VEC3"}, {"bufferView": 188, "componentType": 5126, "count": 1578, "type": "VEC2"}, {"bufferView": 189, "componentType": 5121, "count": 1578, "normalized": true, "type": "VEC4"}, {"bufferView": 190, "componentType": 5123, "count": 1578, "normalized": true, "type": "VEC4"}, {"bufferView": 191, "componentType": 5123, "count": 2946, "type": "SCALAR"}, {"bufferView": 192, "componentType": 5126, "count": 5943, "max": [17.048202514648438, 62.466041564941406, 6.133578300476074], "min": [-17.04818344116211, 0, -6.801234245300293], "type": "VEC3"}, {"bufferView": 193, "componentType": 5126, "count": 5943, "type": "VEC3"}, {"bufferView": 194, "componentType": 5126, "count": 5943, "type": "VEC2"}, {"bufferView": 195, "componentType": 5121, "count": 5943, "normalized": true, "type": "VEC4"}, {"bufferView": 196, "componentType": 5123, "count": 5943, "normalized": true, "type": "VEC4"}, {"bufferView": 197, "componentType": 5123, "count": 12969, "type": "SCALAR"}, {"bufferView": 198, "componentType": 5126, "count": 1129, "max": [17.048202514648438, 62.466041564941406, 6.125110626220703], "min": [-17.04818344116211, 2.7257728576660156, -6.801234245300293], "type": "VEC3"}, {"bufferView": 199, "componentType": 5126, "count": 1129, "type": "VEC3"}, {"bufferView": 200, "componentType": 5126, "count": 1129, "type": "VEC2"}, {"bufferView": 201, "componentType": 5121, "count": 1129, "normalized": true, "type": "VEC4"}, {"bufferView": 202, "componentType": 5123, "count": 1129, "normalized": true, "type": "VEC4"}, {"bufferView": 203, "componentType": 5123, "count": 1869, "type": "SCALAR"}, {"bufferView": 204, "componentType": 5126, "count": 4870, "max": [16.295766830444336, 37.74000930786133, 16.180950164794922], "min": [-14.217103004455566, 0, -14.099481582641602], "type": "VEC3"}, {"bufferView": 205, "componentType": 5126, "count": 4870, "type": "VEC3"}, {"bufferView": 206, "componentType": 5126, "count": 4870, "type": "VEC2"}, {"bufferView": 207, "componentType": 5121, "count": 4870, "normalized": true, "type": "VEC4"}, {"bufferView": 208, "componentType": 5123, "count": 4870, "normalized": true, "type": "VEC4"}, {"bufferView": 209, "componentType": 5123, "count": 10140, "type": "SCALAR"}, {"bufferView": 210, "componentType": 5126, "count": 952, "max": [16.295766830444336, 37.74000930786133, 16.180950164794922], "min": [-14.217103004455566, 1.0398273468017578, -14.099481582641602], "type": "VEC3"}, {"bufferView": 211, "componentType": 5126, "count": 952, "type": "VEC3"}, {"bufferView": 212, "componentType": 5126, "count": 952, "type": "VEC2"}, {"bufferView": 213, "componentType": 5121, "count": 952, "normalized": true, "type": "VEC4"}, {"bufferView": 214, "componentType": 5123, "count": 952, "normalized": true, "type": "VEC4"}, {"bufferView": 215, "componentType": 5123, "count": 1698, "type": "SCALAR"}, {"bufferView": 216, "componentType": 5126, "count": 3730, "max": [31.85157012939453, 36.32441329956055, 15.733453750610352], "min": [-16.291770935058594, -1.286191463470459, -15.795469284057617], "type": "VEC3"}, {"bufferView": 217, "componentType": 5126, "count": 3730, "type": "VEC3"}, {"bufferView": 218, "componentType": 5126, "count": 3730, "type": "VEC2"}, {"bufferView": 219, "componentType": 5121, "count": 3730, "normalized": true, "type": "VEC4"}, {"bufferView": 220, "componentType": 5123, "count": 3730, "normalized": true, "type": "VEC4"}, {"bufferView": 221, "componentType": 5123, "count": 9630, "type": "SCALAR"}, {"bufferView": 222, "componentType": 5126, "count": 935, "max": [31.85157012939453, 36.32441329956055, 15.733453750610352], "min": [-16.29176139831543, 0.2965660095214844, -15.795469284057617], "type": "VEC3"}, {"bufferView": 223, "componentType": 5126, "count": 935, "type": "VEC3"}, {"bufferView": 224, "componentType": 5126, "count": 935, "type": "VEC2"}, {"bufferView": 225, "componentType": 5121, "count": 935, "normalized": true, "type": "VEC4"}, {"bufferView": 226, "componentType": 5123, "count": 935, "normalized": true, "type": "VEC4"}, {"bufferView": 227, "componentType": 5123, "count": 2043, "type": "SCALAR"}, {"bufferView": 228, "componentType": 5126, "count": 2926, "max": [11.659923553466797, 32.98483657836914, 4.253999710083008], "min": [-11.679132461547852, -0.017380714416503906, -4.219535827636719], "type": "VEC3"}, {"bufferView": 229, "componentType": 5126, "count": 2926, "type": "VEC3"}, {"bufferView": 230, "componentType": 5126, "count": 2926, "type": "VEC2"}, {"bufferView": 231, "componentType": 5121, "count": 2926, "normalized": true, "type": "VEC4"}, {"bufferView": 232, "componentType": 5123, "count": 2926, "normalized": true, "type": "VEC4"}, {"bufferView": 233, "componentType": 5123, "count": 5469, "type": "SCALAR"}, {"bufferView": 234, "componentType": 5126, "count": 676, "max": [11.655227661132812, 32.98483657836914, 4.276778221130371], "min": [-11.679132461547852, 0.28789234161376953, -4.219535827636719], "type": "VEC3"}, {"bufferView": 235, "componentType": 5126, "count": 676, "type": "VEC3"}, {"bufferView": 236, "componentType": 5126, "count": 676, "type": "VEC2"}, {"bufferView": 237, "componentType": 5121, "count": 676, "normalized": true, "type": "VEC4"}, {"bufferView": 238, "componentType": 5123, "count": 676, "normalized": true, "type": "VEC4"}, {"bufferView": 239, "componentType": 5123, "count": 1062, "type": "SCALAR"}, {"bufferView": 240, "componentType": 5126, "count": 3751, "max": [14.157511711120605, 27.704174041748047, 10.065521240234375], "min": [-14.182099342346191, -0.04227787256240845, -10.065530776977539], "type": "VEC3"}, {"bufferView": 241, "componentType": 5126, "count": 3751, "type": "VEC3"}, {"bufferView": 242, "componentType": 5126, "count": 3751, "type": "VEC2"}, {"bufferView": 243, "componentType": 5121, "count": 3751, "normalized": true, "type": "VEC4"}, {"bufferView": 244, "componentType": 5123, "count": 3751, "normalized": true, "type": "VEC4"}, {"bufferView": 245, "componentType": 5123, "count": 7464, "type": "SCALAR"}, {"bufferView": 246, "componentType": 5126, "count": 890, "max": [14.157511711120605, 27.704174041748047, 10.065521240234375], "min": [-14.182099342346191, 0.19971254467964172, -10.065529823303223], "type": "VEC3"}, {"bufferView": 247, "componentType": 5126, "count": 890, "type": "VEC3"}, {"bufferView": 248, "componentType": 5126, "count": 890, "type": "VEC2"}, {"bufferView": 249, "componentType": 5121, "count": 890, "normalized": true, "type": "VEC4"}, {"bufferView": 250, "componentType": 5123, "count": 890, "normalized": true, "type": "VEC4"}, {"bufferView": 251, "componentType": 5123, "count": 1548, "type": "SCALAR"}, {"bufferView": 252, "componentType": 5126, "count": 1098, "max": [9.506019592285156, 22.438812255859375, 7.493802070617676], "min": [-8.083126068115234, -0.020958885550498962, -5.905706882476807], "type": "VEC3"}, {"bufferView": 253, "componentType": 5126, "count": 1098, "type": "VEC3"}, {"bufferView": 254, "componentType": 5126, "count": 1098, "type": "VEC2"}, {"bufferView": 255, "componentType": 5123, "count": 2628, "type": "SCALAR"}, {"bufferView": 256, "componentType": 5126, "count": 341, "max": [9.506019592285156, 22.438812255859375, 7.493802070617676], "min": [-8.083126068115234, 0.2570055425167084, -5.905706882476807], "type": "VEC3"}, {"bufferView": 257, "componentType": 5126, "count": 341, "type": "VEC3"}, {"bufferView": 258, "componentType": 5126, "count": 341, "type": "VEC2"}, {"bufferView": 259, "componentType": 5123, "count": 633, "type": "SCALAR"}, {"bufferView": 260, "componentType": 5126, "count": 3043, "max": [19.55340576171875, 28.954660415649414, 9.567021369934082], "min": [-19.68301773071289, -0.043974898755550385, -9.549576759338379], "type": "VEC3"}, {"bufferView": 261, "componentType": 5126, "count": 3043, "type": "VEC3"}, {"bufferView": 262, "componentType": 5126, "count": 3043, "type": "VEC2"}, {"bufferView": 263, "componentType": 5121, "count": 3043, "normalized": true, "type": "VEC4"}, {"bufferView": 264, "componentType": 5123, "count": 3043, "normalized": true, "type": "VEC4"}, {"bufferView": 265, "componentType": 5123, "count": 5766, "type": "SCALAR"}, {"bufferView": 266, "componentType": 5126, "count": 821, "max": [19.55340576171875, 28.954660415649414, 9.567021369934082], "min": [-19.68301773071289, 0.2892487645149231, -9.549576759338379], "type": "VEC3"}, {"bufferView": 267, "componentType": 5126, "count": 821, "type": "VEC3"}, {"bufferView": 268, "componentType": 5126, "count": 821, "type": "VEC2"}, {"bufferView": 269, "componentType": 5121, "count": 821, "normalized": true, "type": "VEC4"}, {"bufferView": 270, "componentType": 5123, "count": 821, "normalized": true, "type": "VEC4"}, {"bufferView": 271, "componentType": 5123, "count": 1329, "type": "SCALAR"}, {"bufferView": 272, "componentType": 5126, "count": 3080, "max": [8.509227752685547, 16.087005615234375, 5.33121395111084], "min": [-4.653541564941406, -0.0030536651611328125, -4.50484037399292], "type": "VEC3"}, {"bufferView": 273, "componentType": 5126, "count": 3080, "type": "VEC3"}, {"bufferView": 274, "componentType": 5126, "count": 3080, "type": "VEC2"}, {"bufferView": 275, "componentType": 5121, "count": 3080, "normalized": true, "type": "VEC4"}, {"bufferView": 276, "componentType": 5123, "count": 3080, "normalized": true, "type": "VEC4"}, {"bufferView": 277, "componentType": 5123, "count": 6324, "type": "SCALAR"}, {"bufferView": 278, "componentType": 5126, "count": 607, "max": [8.509227752685547, 16.087005615234375, 5.33121395111084], "min": [-4.653541564941406, 0.12337493896484375, -4.50484037399292], "type": "VEC3"}, {"bufferView": 279, "componentType": 5126, "count": 607, "type": "VEC3"}, {"bufferView": 280, "componentType": 5126, "count": 607, "type": "VEC2"}, {"bufferView": 281, "componentType": 5121, "count": 607, "normalized": true, "type": "VEC4"}, {"bufferView": 282, "componentType": 5123, "count": 607, "normalized": true, "type": "VEC4"}, {"bufferView": 283, "componentType": 5123, "count": 999, "type": "SCALAR"}, {"bufferView": 284, "componentType": 5126, "count": 2946, "max": [21.77975845336914, 24.097999572753906, 12.885419845581055], "min": [-21.770082473754883, -1.9073486328125e-06, -17.430849075317383], "type": "VEC3"}, {"bufferView": 285, "componentType": 5126, "count": 2946, "type": "VEC3"}, {"bufferView": 286, "componentType": 5126, "count": 2946, "type": "VEC2"}, {"bufferView": 287, "componentType": 5121, "count": 2946, "normalized": true, "type": "VEC4"}, {"bufferView": 288, "componentType": 5123, "count": 2946, "normalized": true, "type": "VEC4"}, {"bufferView": 289, "componentType": 5123, "count": 5748, "type": "SCALAR"}, {"bufferView": 290, "componentType": 5126, "count": 759, "max": [21.77975845336914, 24.097999572753906, 12.885419845581055], "min": [-21.770082473754883, 4.301275253295898, -17.430849075317383], "type": "VEC3"}, {"bufferView": 291, "componentType": 5126, "count": 759, "type": "VEC3"}, {"bufferView": 292, "componentType": 5126, "count": 759, "type": "VEC2"}, {"bufferView": 293, "componentType": 5121, "count": 759, "normalized": true, "type": "VEC4"}, {"bufferView": 294, "componentType": 5123, "count": 759, "normalized": true, "type": "VEC4"}, {"bufferView": 295, "componentType": 5123, "count": 1320, "type": "SCALAR"}, {"bufferView": 296, "componentType": 5126, "count": 2214, "max": [13.72169017791748, 22.459980010986328, 15.000656127929688], "min": [-17.7751522064209, -0.1878643035888672, -8.766621589660645], "type": "VEC3"}, {"bufferView": 297, "componentType": 5126, "count": 2214, "type": "VEC3"}, {"bufferView": 298, "componentType": 5126, "count": 2214, "type": "VEC2"}, {"bufferView": 299, "componentType": 5121, "count": 2214, "normalized": true, "type": "VEC4"}, {"bufferView": 300, "componentType": 5123, "count": 2214, "normalized": true, "type": "VEC4"}, {"bufferView": 301, "componentType": 5123, "count": 4545, "type": "SCALAR"}, {"bufferView": 302, "componentType": 5126, "count": 559, "max": [13.72169017791748, 22.459980010986328, 15.000656127929688], "min": [-17.656574249267578, 0.19756698608398438, -8.766619682312012], "type": "VEC3"}, {"bufferView": 303, "componentType": 5126, "count": 559, "type": "VEC3"}, {"bufferView": 304, "componentType": 5126, "count": 559, "type": "VEC2"}, {"bufferView": 305, "componentType": 5121, "count": 559, "normalized": true, "type": "VEC4"}, {"bufferView": 306, "componentType": 5123, "count": 559, "normalized": true, "type": "VEC4"}, {"bufferView": 307, "componentType": 5123, "count": 969, "type": "SCALAR"}, {"bufferView": 308, "componentType": 5126, "count": 2713, "max": [31.85157585144043, 33.157684326171875, 15.733453750610352], "min": [-16.29176139831543, -1.2861913442611694, -15.733453750610352], "type": "VEC3"}, {"bufferView": 309, "componentType": 5126, "count": 2713, "type": "VEC3"}, {"bufferView": 310, "componentType": 5126, "count": 2713, "type": "VEC2"}, {"bufferView": 311, "componentType": 5121, "count": 2713, "normalized": true, "type": "VEC4"}, {"bufferView": 312, "componentType": 5123, "count": 2713, "normalized": true, "type": "VEC4"}, {"bufferView": 313, "componentType": 5123, "count": 6597, "type": "SCALAR"}, {"bufferView": 314, "componentType": 5126, "count": 644, "max": [31.85157585144043, 33.157684326171875, 15.733453750610352], "min": [-16.29176139831543, 0.2965640723705292, -15.733453750610352], "type": "VEC3"}, {"bufferView": 315, "componentType": 5126, "count": 644, "type": "VEC3"}, {"bufferView": 316, "componentType": 5126, "count": 644, "type": "VEC2"}, {"bufferView": 317, "componentType": 5121, "count": 644, "normalized": true, "type": "VEC4"}, {"bufferView": 318, "componentType": 5123, "count": 644, "normalized": true, "type": "VEC4"}, {"bufferView": 319, "componentType": 5123, "count": 1416, "type": "SCALAR"}], "bufferViews": [{"buffer": 0, "byteLength": 3588, "byteOffset": 0, "target": 34962}, {"buffer": 0, "byteLength": 3588, "byteOffset": 3588, "target": 34962}, {"buffer": 0, "byteLength": 2392, "byteOffset": 7176, "target": 34962}, {"buffer": 0, "byteLength": 1196, "byteOffset": 9568, "target": 34962}, {"buffer": 0, "byteLength": 2392, "byteOffset": 10764, "target": 34962}, {"buffer": 0, "byteLength": 1140, "byteOffset": 13156, "target": 34963}, {"buffer": 0, "byteLength": 960, "byteOffset": 14296, "target": 34962}, {"buffer": 0, "byteLength": 960, "byteOffset": 15256, "target": 34962}, {"buffer": 0, "byteLength": 640, "byteOffset": 16216, "target": 34962}, {"buffer": 0, "byteLength": 320, "byteOffset": 16856, "target": 34962}, {"buffer": 0, "byteLength": 640, "byteOffset": 17176, "target": 34962}, {"buffer": 0, "byteLength": 348, "byteOffset": 17816, "target": 34963}, {"buffer": 0, "byteLength": 2016, "byteOffset": 18164, "target": 34962}, {"buffer": 0, "byteLength": 2016, "byteOffset": 20180, "target": 34962}, {"buffer": 0, "byteLength": 1344, "byteOffset": 22196, "target": 34962}, {"buffer": 0, "byteLength": 672, "byteOffset": 23540, "target": 34962}, {"buffer": 0, "byteLength": 1344, "byteOffset": 24212, "target": 34962}, {"buffer": 0, "byteLength": 540, "byteOffset": 25556, "target": 34963}, {"buffer": 0, "byteLength": 696, "byteOffset": 26096, "target": 34962}, {"buffer": 0, "byteLength": 696, "byteOffset": 26792, "target": 34962}, {"buffer": 0, "byteLength": 464, "byteOffset": 27488, "target": 34962}, {"buffer": 0, "byteLength": 232, "byteOffset": 27952, "target": 34962}, {"buffer": 0, "byteLength": 464, "byteOffset": 28184, "target": 34962}, {"buffer": 0, "byteLength": 192, "byteOffset": 28648, "target": 34963}, {"buffer": 0, "byteLength": 912, "byteOffset": 28840, "target": 34962}, {"buffer": 0, "byteLength": 912, "byteOffset": 29752, "target": 34962}, {"buffer": 0, "byteLength": 608, "byteOffset": 30664, "target": 34962}, {"buffer": 0, "byteLength": 304, "byteOffset": 31272, "target": 34962}, {"buffer": 0, "byteLength": 608, "byteOffset": 31576, "target": 34962}, {"buffer": 0, "byteLength": 444, "byteOffset": 32184, "target": 34963}, {"buffer": 0, "byteLength": 2052, "byteOffset": 32628, "target": 34962}, {"buffer": 0, "byteLength": 2052, "byteOffset": 34680, "target": 34962}, {"buffer": 0, "byteLength": 1368, "byteOffset": 36732, "target": 34962}, {"buffer": 0, "byteLength": 684, "byteOffset": 38100, "target": 34962}, {"buffer": 0, "byteLength": 1368, "byteOffset": 38784, "target": 34962}, {"buffer": 0, "byteLength": 816, "byteOffset": 40152, "target": 34963}, {"buffer": 0, "byteLength": 2400, "byteOffset": 40968, "target": 34962}, {"buffer": 0, "byteLength": 2400, "byteOffset": 43368, "target": 34962}, {"buffer": 0, "byteLength": 1600, "byteOffset": 45768, "target": 34962}, {"buffer": 0, "byteLength": 800, "byteOffset": 47368, "target": 34962}, {"buffer": 0, "byteLength": 1600, "byteOffset": 48168, "target": 34962}, {"buffer": 0, "byteLength": 876, "byteOffset": 49768, "target": 34963}, {"buffer": 0, "byteLength": 1404, "byteOffset": 50644, "target": 34962}, {"buffer": 0, "byteLength": 1404, "byteOffset": 52048, "target": 34962}, {"buffer": 0, "byteLength": 936, "byteOffset": 53452, "target": 34962}, {"buffer": 0, "byteLength": 468, "byteOffset": 54388, "target": 34962}, {"buffer": 0, "byteLength": 936, "byteOffset": 54856, "target": 34962}, {"buffer": 0, "byteLength": 570, "byteOffset": 55792, "target": 34963}, {"buffer": 0, "byteLength": 2784, "byteOffset": 56364, "target": 34962}, {"buffer": 0, "byteLength": 2784, "byteOffset": 59148, "target": 34962}, {"buffer": 0, "byteLength": 1856, "byteOffset": 61932, "target": 34962}, {"buffer": 0, "byteLength": 928, "byteOffset": 63788, "target": 34962}, {"buffer": 0, "byteLength": 1856, "byteOffset": 64716, "target": 34962}, {"buffer": 0, "byteLength": 1128, "byteOffset": 66572, "target": 34963}, {"buffer": 0, "byteLength": 984, "byteOffset": 67700, "target": 34962}, {"buffer": 0, "byteLength": 984, "byteOffset": 68684, "target": 34962}, {"buffer": 0, "byteLength": 656, "byteOffset": 69668, "target": 34962}, {"buffer": 0, "byteLength": 328, "byteOffset": 70324, "target": 34962}, {"buffer": 0, "byteLength": 656, "byteOffset": 70652, "target": 34962}, {"buffer": 0, "byteLength": 300, "byteOffset": 71308, "target": 34963}, {"buffer": 0, "byteLength": 2676, "byteOffset": 71608, "target": 34962}, {"buffer": 0, "byteLength": 2676, "byteOffset": 74284, "target": 34962}, {"buffer": 0, "byteLength": 1784, "byteOffset": 76960, "target": 34962}, {"buffer": 0, "byteLength": 892, "byteOffset": 78744, "target": 34962}, {"buffer": 0, "byteLength": 1784, "byteOffset": 79636, "target": 34962}, {"buffer": 0, "byteLength": 834, "byteOffset": 81420, "target": 34963}, {"buffer": 0, "byteLength": 1080, "byteOffset": 82256, "target": 34962}, {"buffer": 0, "byteLength": 1080, "byteOffset": 83336, "target": 34962}, {"buffer": 0, "byteLength": 720, "byteOffset": 84416, "target": 34962}, {"buffer": 0, "byteLength": 360, "byteOffset": 85136, "target": 34962}, {"buffer": 0, "byteLength": 720, "byteOffset": 85496, "target": 34962}, {"buffer": 0, "byteLength": 324, "byteOffset": 86216, "target": 34963}, {"buffer": 0, "byteLength": 4032, "byteOffset": 86540, "target": 34962}, {"buffer": 0, "byteLength": 4032, "byteOffset": 90572, "target": 34962}, {"buffer": 0, "byteLength": 2688, "byteOffset": 94604, "target": 34962}, {"buffer": 0, "byteLength": 1344, "byteOffset": 97292, "target": 34962}, {"buffer": 0, "byteLength": 2688, "byteOffset": 98636, "target": 34962}, {"buffer": 0, "byteLength": 1614, "byteOffset": 101324, "target": 34963}, {"buffer": 0, "byteLength": 936, "byteOffset": 102940, "target": 34962}, {"buffer": 0, "byteLength": 936, "byteOffset": 103876, "target": 34962}, {"buffer": 0, "byteLength": 624, "byteOffset": 104812, "target": 34962}, {"buffer": 0, "byteLength": 312, "byteOffset": 105436, "target": 34962}, {"buffer": 0, "byteLength": 624, "byteOffset": 105748, "target": 34962}, {"buffer": 0, "byteLength": 318, "byteOffset": 106372, "target": 34963}, {"buffer": 0, "byteLength": 3096, "byteOffset": 106692, "target": 34962}, {"buffer": 0, "byteLength": 3096, "byteOffset": 109788, "target": 34962}, {"buffer": 0, "byteLength": 2064, "byteOffset": 112884, "target": 34962}, {"buffer": 0, "byteLength": 1032, "byteOffset": 114948, "target": 34962}, {"buffer": 0, "byteLength": 2064, "byteOffset": 115980, "target": 34962}, {"buffer": 0, "byteLength": 696, "byteOffset": 118044, "target": 34963}, {"buffer": 0, "byteLength": 1848, "byteOffset": 118740, "target": 34962}, {"buffer": 0, "byteLength": 1848, "byteOffset": 120588, "target": 34962}, {"buffer": 0, "byteLength": 1232, "byteOffset": 122436, "target": 34962}, {"buffer": 0, "byteLength": 616, "byteOffset": 123668, "target": 34962}, {"buffer": 0, "byteLength": 1232, "byteOffset": 124284, "target": 34962}, {"buffer": 0, "byteLength": 432, "byteOffset": 125516, "target": 34963}, {"buffer": 0, "byteLength": 1320, "byteOffset": 125948, "target": 34962}, {"buffer": 0, "byteLength": 1320, "byteOffset": 127268, "target": 34962}, {"buffer": 0, "byteLength": 880, "byteOffset": 128588, "target": 34962}, {"buffer": 0, "byteLength": 440, "byteOffset": 129468, "target": 34962}, {"buffer": 0, "byteLength": 880, "byteOffset": 129908, "target": 34962}, {"buffer": 0, "byteLength": 348, "byteOffset": 130788, "target": 34963}, {"buffer": 0, "byteLength": 3612, "byteOffset": 131136, "target": 34962}, {"buffer": 0, "byteLength": 3612, "byteOffset": 134748, "target": 34962}, {"buffer": 0, "byteLength": 2408, "byteOffset": 138360, "target": 34962}, {"buffer": 0, "byteLength": 1204, "byteOffset": 140768, "target": 34962}, {"buffer": 0, "byteLength": 2408, "byteOffset": 141972, "target": 34962}, {"buffer": 0, "byteLength": 894, "byteOffset": 144380, "target": 34963}, {"buffer": 0, "byteLength": 2892, "byteOffset": 145276, "target": 34962}, {"buffer": 0, "byteLength": 2892, "byteOffset": 148168, "target": 34962}, {"buffer": 0, "byteLength": 1928, "byteOffset": 151060, "target": 34962}, {"buffer": 0, "byteLength": 964, "byteOffset": 152988, "target": 34962}, {"buffer": 0, "byteLength": 1928, "byteOffset": 153952, "target": 34962}, {"buffer": 0, "byteLength": 972, "byteOffset": 155880, "target": 34963}, {"buffer": 0, "byteLength": 984, "byteOffset": 156852, "target": 34962}, {"buffer": 0, "byteLength": 984, "byteOffset": 157836, "target": 34962}, {"buffer": 0, "byteLength": 656, "byteOffset": 158820, "target": 34962}, {"buffer": 0, "byteLength": 328, "byteOffset": 159476, "target": 34962}, {"buffer": 0, "byteLength": 656, "byteOffset": 159804, "target": 34962}, {"buffer": 0, "byteLength": 354, "byteOffset": 160460, "target": 34963}, {"buffer": 0, "byteLength": 1920, "byteOffset": 160816, "target": 34962}, {"buffer": 0, "byteLength": 1920, "byteOffset": 162736, "target": 34962}, {"buffer": 0, "byteLength": 1280, "byteOffset": 164656, "target": 34962}, {"buffer": 0, "byteLength": 640, "byteOffset": 165936, "target": 34962}, {"buffer": 0, "byteLength": 1280, "byteOffset": 166576, "target": 34962}, {"buffer": 0, "byteLength": 726, "byteOffset": 167856, "target": 34963}, {"buffer": 0, "byteLength": 852, "byteOffset": 168584, "target": 34962}, {"buffer": 0, "byteLength": 852, "byteOffset": 169436, "target": 34962}, {"buffer": 0, "byteLength": 568, "byteOffset": 170288, "target": 34962}, {"buffer": 0, "byteLength": 284, "byteOffset": 170856, "target": 34962}, {"buffer": 0, "byteLength": 568, "byteOffset": 171140, "target": 34962}, {"buffer": 0, "byteLength": 348, "byteOffset": 171708, "target": 34963}, {"buffer": 0, "byteLength": 74124, "byteOffset": 172056, "target": 34962}, {"buffer": 0, "byteLength": 74124, "byteOffset": 246180, "target": 34962}, {"buffer": 0, "byteLength": 49416, "byteOffset": 320304, "target": 34962}, {"buffer": 0, "byteLength": 24708, "byteOffset": 369720, "target": 34962}, {"buffer": 0, "byteLength": 49416, "byteOffset": 394428, "target": 34962}, {"buffer": 0, "byteLength": 21660, "byteOffset": 443844, "target": 34963}, {"buffer": 0, "byteLength": 16344, "byteOffset": 465504, "target": 34962}, {"buffer": 0, "byteLength": 16344, "byteOffset": 481848, "target": 34962}, {"buffer": 0, "byteLength": 10896, "byteOffset": 498192, "target": 34962}, {"buffer": 0, "byteLength": 5448, "byteOffset": 509088, "target": 34962}, {"buffer": 0, "byteLength": 10896, "byteOffset": 514536, "target": 34962}, {"buffer": 0, "byteLength": 4464, "byteOffset": 525432, "target": 34963}, {"buffer": 0, "byteLength": 46992, "byteOffset": 529896, "target": 34962}, {"buffer": 0, "byteLength": 46992, "byteOffset": 576888, "target": 34962}, {"buffer": 0, "byteLength": 31328, "byteOffset": 623880, "target": 34962}, {"buffer": 0, "byteLength": 15664, "byteOffset": 655208, "target": 34962}, {"buffer": 0, "byteLength": 31328, "byteOffset": 670872, "target": 34962}, {"buffer": 0, "byteLength": 19014, "byteOffset": 702200, "target": 34963}, {"buffer": 0, "byteLength": 10740, "byteOffset": 721216, "target": 34962}, {"buffer": 0, "byteLength": 10740, "byteOffset": 731956, "target": 34962}, {"buffer": 0, "byteLength": 7160, "byteOffset": 742696, "target": 34962}, {"buffer": 0, "byteLength": 3580, "byteOffset": 749856, "target": 34962}, {"buffer": 0, "byteLength": 7160, "byteOffset": 753436, "target": 34962}, {"buffer": 0, "byteLength": 3750, "byteOffset": 760596, "target": 34963}, {"buffer": 0, "byteLength": 21360, "byteOffset": 764348, "target": 34962}, {"buffer": 0, "byteLength": 21360, "byteOffset": 785708, "target": 34962}, {"buffer": 0, "byteLength": 14240, "byteOffset": 807068, "target": 34962}, {"buffer": 0, "byteLength": 7120, "byteOffset": 821308, "target": 34962}, {"buffer": 0, "byteLength": 14240, "byteOffset": 828428, "target": 34962}, {"buffer": 0, "byteLength": 6732, "byteOffset": 842668, "target": 34963}, {"buffer": 0, "byteLength": 5844, "byteOffset": 849400, "target": 34962}, {"buffer": 0, "byteLength": 5844, "byteOffset": 855244, "target": 34962}, {"buffer": 0, "byteLength": 3896, "byteOffset": 861088, "target": 34962}, {"buffer": 0, "byteLength": 1948, "byteOffset": 864984, "target": 34962}, {"buffer": 0, "byteLength": 3896, "byteOffset": 866932, "target": 34962}, {"buffer": 0, "byteLength": 1542, "byteOffset": 870828, "target": 34963}, {"buffer": 0, "byteLength": 40020, "byteOffset": 872372, "target": 34962}, {"buffer": 0, "byteLength": 40020, "byteOffset": 912392, "target": 34962}, {"buffer": 0, "byteLength": 26680, "byteOffset": 952412, "target": 34962}, {"buffer": 0, "byteLength": 13340, "byteOffset": 979092, "target": 34962}, {"buffer": 0, "byteLength": 26680, "byteOffset": 992432, "target": 34962}, {"buffer": 0, "byteLength": 12690, "byteOffset": 1019112, "target": 34963}, {"buffer": 0, "byteLength": 6756, "byteOffset": 1031804, "target": 34962}, {"buffer": 0, "byteLength": 6756, "byteOffset": 1038560, "target": 34962}, {"buffer": 0, "byteLength": 4504, "byteOffset": 1045316, "target": 34962}, {"buffer": 0, "byteLength": 2252, "byteOffset": 1049820, "target": 34962}, {"buffer": 0, "byteLength": 4504, "byteOffset": 1052072, "target": 34962}, {"buffer": 0, "byteLength": 2154, "byteOffset": 1056576, "target": 34963}, {"buffer": 0, "byteLength": 87744, "byteOffset": 1058732, "target": 34962}, {"buffer": 0, "byteLength": 87744, "byteOffset": 1146476, "target": 34962}, {"buffer": 0, "byteLength": 58496, "byteOffset": 1234220, "target": 34962}, {"buffer": 0, "byteLength": 29248, "byteOffset": 1292716, "target": 34962}, {"buffer": 0, "byteLength": 58496, "byteOffset": 1321964, "target": 34962}, {"buffer": 0, "byteLength": 29856, "byteOffset": 1380460, "target": 34963}, {"buffer": 0, "byteLength": 18936, "byteOffset": 1410316, "target": 34962}, {"buffer": 0, "byteLength": 18936, "byteOffset": 1429252, "target": 34962}, {"buffer": 0, "byteLength": 12624, "byteOffset": 1448188, "target": 34962}, {"buffer": 0, "byteLength": 6312, "byteOffset": 1460812, "target": 34962}, {"buffer": 0, "byteLength": 12624, "byteOffset": 1467124, "target": 34962}, {"buffer": 0, "byteLength": 5892, "byteOffset": 1479748, "target": 34963}, {"buffer": 0, "byteLength": 71316, "byteOffset": 1485640, "target": 34962}, {"buffer": 0, "byteLength": 71316, "byteOffset": 1556956, "target": 34962}, {"buffer": 0, "byteLength": 47544, "byteOffset": 1628272, "target": 34962}, {"buffer": 0, "byteLength": 23772, "byteOffset": 1675816, "target": 34962}, {"buffer": 0, "byteLength": 47544, "byteOffset": 1699588, "target": 34962}, {"buffer": 0, "byteLength": 25938, "byteOffset": 1747132, "target": 34963}, {"buffer": 0, "byteLength": 13548, "byteOffset": 1773072, "target": 34962}, {"buffer": 0, "byteLength": 13548, "byteOffset": 1786620, "target": 34962}, {"buffer": 0, "byteLength": 9032, "byteOffset": 1800168, "target": 34962}, {"buffer": 0, "byteLength": 4516, "byteOffset": 1809200, "target": 34962}, {"buffer": 0, "byteLength": 9032, "byteOffset": 1813716, "target": 34962}, {"buffer": 0, "byteLength": 3738, "byteOffset": 1822748, "target": 34963}, {"buffer": 0, "byteLength": 58440, "byteOffset": 1826488, "target": 34962}, {"buffer": 0, "byteLength": 58440, "byteOffset": 1884928, "target": 34962}, {"buffer": 0, "byteLength": 38960, "byteOffset": 1943368, "target": 34962}, {"buffer": 0, "byteLength": 19480, "byteOffset": 1982328, "target": 34962}, {"buffer": 0, "byteLength": 38960, "byteOffset": 2001808, "target": 34962}, {"buffer": 0, "byteLength": 20280, "byteOffset": 2040768, "target": 34963}, {"buffer": 0, "byteLength": 11424, "byteOffset": 2061048, "target": 34962}, {"buffer": 0, "byteLength": 11424, "byteOffset": 2072472, "target": 34962}, {"buffer": 0, "byteLength": 7616, "byteOffset": 2083896, "target": 34962}, {"buffer": 0, "byteLength": 3808, "byteOffset": 2091512, "target": 34962}, {"buffer": 0, "byteLength": 7616, "byteOffset": 2095320, "target": 34962}, {"buffer": 0, "byteLength": 3396, "byteOffset": 2102936, "target": 34963}, {"buffer": 0, "byteLength": 44760, "byteOffset": 2106332, "target": 34962}, {"buffer": 0, "byteLength": 44760, "byteOffset": 2151092, "target": 34962}, {"buffer": 0, "byteLength": 29840, "byteOffset": 2195852, "target": 34962}, {"buffer": 0, "byteLength": 14920, "byteOffset": 2225692, "target": 34962}, {"buffer": 0, "byteLength": 29840, "byteOffset": 2240612, "target": 34962}, {"buffer": 0, "byteLength": 19260, "byteOffset": 2270452, "target": 34963}, {"buffer": 0, "byteLength": 11220, "byteOffset": 2289712, "target": 34962}, {"buffer": 0, "byteLength": 11220, "byteOffset": 2300932, "target": 34962}, {"buffer": 0, "byteLength": 7480, "byteOffset": 2312152, "target": 34962}, {"buffer": 0, "byteLength": 3740, "byteOffset": 2319632, "target": 34962}, {"buffer": 0, "byteLength": 7480, "byteOffset": 2323372, "target": 34962}, {"buffer": 0, "byteLength": 4086, "byteOffset": 2330852, "target": 34963}, {"buffer": 0, "byteLength": 35112, "byteOffset": 2334940, "target": 34962}, {"buffer": 0, "byteLength": 35112, "byteOffset": 2370052, "target": 34962}, {"buffer": 0, "byteLength": 23408, "byteOffset": 2405164, "target": 34962}, {"buffer": 0, "byteLength": 11704, "byteOffset": 2428572, "target": 34962}, {"buffer": 0, "byteLength": 23408, "byteOffset": 2440276, "target": 34962}, {"buffer": 0, "byteLength": 10938, "byteOffset": 2463684, "target": 34963}, {"buffer": 0, "byteLength": 8112, "byteOffset": 2474624, "target": 34962}, {"buffer": 0, "byteLength": 8112, "byteOffset": 2482736, "target": 34962}, {"buffer": 0, "byteLength": 5408, "byteOffset": 2490848, "target": 34962}, {"buffer": 0, "byteLength": 2704, "byteOffset": 2496256, "target": 34962}, {"buffer": 0, "byteLength": 5408, "byteOffset": 2498960, "target": 34962}, {"buffer": 0, "byteLength": 2124, "byteOffset": 2504368, "target": 34963}, {"buffer": 0, "byteLength": 45012, "byteOffset": 2506492, "target": 34962}, {"buffer": 0, "byteLength": 45012, "byteOffset": 2551504, "target": 34962}, {"buffer": 0, "byteLength": 30008, "byteOffset": 2596516, "target": 34962}, {"buffer": 0, "byteLength": 15004, "byteOffset": 2626524, "target": 34962}, {"buffer": 0, "byteLength": 30008, "byteOffset": 2641528, "target": 34962}, {"buffer": 0, "byteLength": 14928, "byteOffset": 2671536, "target": 34963}, {"buffer": 0, "byteLength": 10680, "byteOffset": 2686464, "target": 34962}, {"buffer": 0, "byteLength": 10680, "byteOffset": 2697144, "target": 34962}, {"buffer": 0, "byteLength": 7120, "byteOffset": 2707824, "target": 34962}, {"buffer": 0, "byteLength": 3560, "byteOffset": 2714944, "target": 34962}, {"buffer": 0, "byteLength": 7120, "byteOffset": 2718504, "target": 34962}, {"buffer": 0, "byteLength": 3096, "byteOffset": 2725624, "target": 34963}, {"buffer": 0, "byteLength": 13176, "byteOffset": 2728720, "target": 34962}, {"buffer": 0, "byteLength": 13176, "byteOffset": 2741896, "target": 34962}, {"buffer": 0, "byteLength": 8784, "byteOffset": 2755072, "target": 34962}, {"buffer": 0, "byteLength": 5256, "byteOffset": 2763856, "target": 34963}, {"buffer": 0, "byteLength": 4092, "byteOffset": 2769112, "target": 34962}, {"buffer": 0, "byteLength": 4092, "byteOffset": 2773204, "target": 34962}, {"buffer": 0, "byteLength": 2728, "byteOffset": 2777296, "target": 34962}, {"buffer": 0, "byteLength": 1266, "byteOffset": 2780024, "target": 34963}, {"buffer": 0, "byteLength": 36516, "byteOffset": 2781292, "target": 34962}, {"buffer": 0, "byteLength": 36516, "byteOffset": 2817808, "target": 34962}, {"buffer": 0, "byteLength": 24344, "byteOffset": 2854324, "target": 34962}, {"buffer": 0, "byteLength": 12172, "byteOffset": 2878668, "target": 34962}, {"buffer": 0, "byteLength": 24344, "byteOffset": 2890840, "target": 34962}, {"buffer": 0, "byteLength": 11532, "byteOffset": 2915184, "target": 34963}, {"buffer": 0, "byteLength": 9852, "byteOffset": 2926716, "target": 34962}, {"buffer": 0, "byteLength": 9852, "byteOffset": 2936568, "target": 34962}, {"buffer": 0, "byteLength": 6568, "byteOffset": 2946420, "target": 34962}, {"buffer": 0, "byteLength": 3284, "byteOffset": 2952988, "target": 34962}, {"buffer": 0, "byteLength": 6568, "byteOffset": 2956272, "target": 34962}, {"buffer": 0, "byteLength": 2658, "byteOffset": 2962840, "target": 34963}, {"buffer": 0, "byteLength": 36960, "byteOffset": 2965500, "target": 34962}, {"buffer": 0, "byteLength": 36960, "byteOffset": 3002460, "target": 34962}, {"buffer": 0, "byteLength": 24640, "byteOffset": 3039420, "target": 34962}, {"buffer": 0, "byteLength": 12320, "byteOffset": 3064060, "target": 34962}, {"buffer": 0, "byteLength": 24640, "byteOffset": 3076380, "target": 34962}, {"buffer": 0, "byteLength": 12648, "byteOffset": 3101020, "target": 34963}, {"buffer": 0, "byteLength": 7284, "byteOffset": 3113668, "target": 34962}, {"buffer": 0, "byteLength": 7284, "byteOffset": 3120952, "target": 34962}, {"buffer": 0, "byteLength": 4856, "byteOffset": 3128236, "target": 34962}, {"buffer": 0, "byteLength": 2428, "byteOffset": 3133092, "target": 34962}, {"buffer": 0, "byteLength": 4856, "byteOffset": 3135520, "target": 34962}, {"buffer": 0, "byteLength": 1998, "byteOffset": 3140376, "target": 34963}, {"buffer": 0, "byteLength": 35352, "byteOffset": 3142376, "target": 34962}, {"buffer": 0, "byteLength": 35352, "byteOffset": 3177728, "target": 34962}, {"buffer": 0, "byteLength": 23568, "byteOffset": 3213080, "target": 34962}, {"buffer": 0, "byteLength": 11784, "byteOffset": 3236648, "target": 34962}, {"buffer": 0, "byteLength": 23568, "byteOffset": 3248432, "target": 34962}, {"buffer": 0, "byteLength": 11496, "byteOffset": 3272000, "target": 34963}, {"buffer": 0, "byteLength": 9108, "byteOffset": 3283496, "target": 34962}, {"buffer": 0, "byteLength": 9108, "byteOffset": 3292604, "target": 34962}, {"buffer": 0, "byteLength": 6072, "byteOffset": 3301712, "target": 34962}, {"buffer": 0, "byteLength": 3036, "byteOffset": 3307784, "target": 34962}, {"buffer": 0, "byteLength": 6072, "byteOffset": 3310820, "target": 34962}, {"buffer": 0, "byteLength": 2640, "byteOffset": 3316892, "target": 34963}, {"buffer": 0, "byteLength": 26568, "byteOffset": 3319532, "target": 34962}, {"buffer": 0, "byteLength": 26568, "byteOffset": 3346100, "target": 34962}, {"buffer": 0, "byteLength": 17712, "byteOffset": 3372668, "target": 34962}, {"buffer": 0, "byteLength": 8856, "byteOffset": 3390380, "target": 34962}, {"buffer": 0, "byteLength": 17712, "byteOffset": 3399236, "target": 34962}, {"buffer": 0, "byteLength": 9090, "byteOffset": 3416948, "target": 34963}, {"buffer": 0, "byteLength": 6708, "byteOffset": 3426040, "target": 34962}, {"buffer": 0, "byteLength": 6708, "byteOffset": 3432748, "target": 34962}, {"buffer": 0, "byteLength": 4472, "byteOffset": 3439456, "target": 34962}, {"buffer": 0, "byteLength": 2236, "byteOffset": 3443928, "target": 34962}, {"buffer": 0, "byteLength": 4472, "byteOffset": 3446164, "target": 34962}, {"buffer": 0, "byteLength": 1938, "byteOffset": 3450636, "target": 34963}, {"buffer": 0, "byteLength": 32556, "byteOffset": 3452576, "target": 34962}, {"buffer": 0, "byteLength": 32556, "byteOffset": 3485132, "target": 34962}, {"buffer": 0, "byteLength": 21704, "byteOffset": 3517688, "target": 34962}, {"buffer": 0, "byteLength": 10852, "byteOffset": 3539392, "target": 34962}, {"buffer": 0, "byteLength": 21704, "byteOffset": 3550244, "target": 34962}, {"buffer": 0, "byteLength": 13194, "byteOffset": 3571948, "target": 34963}, {"buffer": 0, "byteLength": 7728, "byteOffset": 3585144, "target": 34962}, {"buffer": 0, "byteLength": 7728, "byteOffset": 3592872, "target": 34962}, {"buffer": 0, "byteLength": 5152, "byteOffset": 3600600, "target": 34962}, {"buffer": 0, "byteLength": 2576, "byteOffset": 3605752, "target": 34962}, {"buffer": 0, "byteLength": 5152, "byteOffset": 3608328, "target": 34962}, {"buffer": 0, "byteLength": 2832, "byteOffset": 3613480, "target": 34963}], "buffers": [{"byteLength": 3616312, "uri": "Destroyed_City.bin"}]}